<?xml version="1.0" encoding="UTF-8"?>
<svg id="Layer_1" data-name="Layer 1" xmlns="http://www.w3.org/2000/svg" viewBox="0 0 723.02 173.99">
  <defs>
    <style>
      .cls-1 {
        fill: #5778bb;
      }

      .cls-1, .cls-2 {
        stroke-width: 0px;
      }

      .cls-2 {
        fill: #fff;
      }
    </style>
  </defs>
  <circle class="cls-1" cx="86.99" cy="86.99" r="86.99"/>
  <g>
    <g>
      <path class="cls-2" d="m59.2,136.75v-25.16h49.31c5.03,0,8.05-3.02,8.05-8.05s-2.01-8.05-7.04-8.05h-8.05c4.03-9.06,8.05-18.11,12.08-27.17,14.09,4.03,23.15,12.08,26.17,25.16,4.03,17.11-5.03,35.22-22.14,41.26-3.02,1.01-7.04,2.01-11.07,2.01h-9.06c-12.08,0-25.16,0-38.24,0Z"/>
      <path class="cls-1" d="m106.5,139.27h-49.82v-30.19h51.83c3.62,0,5.53-1.91,5.53-5.53,0-4.61-1.73-5.53-4.53-5.53h-11.92l14.54-32.71,2.1.6c15.41,4.4,24.8,13.49,27.92,27.01,4.44,18.84-5.77,37.85-23.75,44.2-4.3,1.43-8.29,2.15-11.91,2.15Zm-44.79-5.03h44.79c3.83,0,7.7-1.02,10.27-1.88,15.51-5.47,24.33-21.95,20.49-38.3-2.58-11.16-9.89-18.6-22.32-22.68l-9.6,21.6h4.18c3.57,0,9.56,1.37,9.56,10.56,0,6.42-4.15,10.56-10.56,10.56h-46.8v20.13Z"/>
    </g>
    <g>
      <path class="cls-2" d="m101.47,28.07v24.15h-3.02c-10.06,0-21.13,0-31.2,1.01-5.03,0-8.05,3.02-9.06,7.04-1.01,5.03,1.01,9.06,6.04,10.06,3.02,1.01,7.04,2.01,11.07,2.01-3.02,8.05-6.04,15.1-10.06,23.15-8.05-1.01-15.1-4.03-21.13-9.06-10.06-10.06-13.08-21.13-9.06-34.22,4.03-12.08,12.08-21.13,25.16-23.15,2.01,0,4.03-1.01,6.04-1.01h35.22c-1.01,0,0,0,0,0Z"/>
      <path class="cls-1" d="m66.7,98.21l-1.77-.22c-8.5-1.06-16.04-4.3-22.43-9.63-10.96-10.95-14.13-22.96-9.85-36.89,4.77-14.3,14.16-22.89,27.18-24.89,1.08-.03,1.91-.24,2.79-.46,1.09-.27,2.31-.58,3.63-.58h37.29l.45,2.52v26.67h-5.53c-9.85,0-21.01,0-30.95.99-4.89.01-6.39,3.23-6.86,5.15-.43,2.14-.5,6.07,4.09,6.99,4,1.31,7.56,1.96,10.57,1.96h3.63l-1.28,3.4c-3.19,8.51-6.23,15.51-10.17,23.39l-.8,1.59Zm-.45-67.63c-.7,0-1.53.21-2.41.43-1.09.27-2.31.58-3.63.58-13.56,2.11-19.91,12.82-22.77,21.42-3.71,12.08-1.04,22.16,8.45,31.64,5.04,4.19,11.1,6.94,17.91,8.09,2.99-6.08,5.46-11.71,7.94-18.1-2.61-.31-5.39-.95-8.29-1.92-2.85-.55-5.26-2.19-6.68-4.66-1.3-2.28-1.66-5.15-1.03-8.28,1.42-5.72,5.72-9.07,11.52-9.07,9.94-1.01,21.23-1.01,31.2-1.01h.5v-19.12h-32.71Z"/>
    </g>
    <path class="cls-2" d="m91.41,64.3c3.02,0,6.04,1.01,9.06,1.01-4.03,11.07-9.06,23.15-13.08,34.22-3.02,0-6.04-1.01-9.06-1.01,4.03-12.08,8.05-23.15,13.08-34.22Z"/>
  </g>
  <g>
    <path class="cls-2" d="m186.62,114.61l6.04-7.04c6.04,6.04,14.09,10.06,22.14,10.06,10.06,0,16.1-5.03,16.1-13.08s-6.04-11.07-13.08-14.09l-11.07-5.03c-7.04-3.02-16.1-9.06-16.1-20.13,0-12.08,10.06-21.13,25.16-21.13,9.06,0,18.11,4.03,23.15,10.06l-5.03,6.04c-5.03-5.03-11.07-7.04-18.11-7.04-9.06,0-15.1,5.03-15.1,11.07,0,8.05,7.04,10.06,13.08,13.08l11.07,5.03c9.06,4.03,16.1,9.06,16.1,21.13s-10.06,22.14-27.17,22.14c-10.06,0-20.13-4.03-27.17-11.07Z"/>
    <path class="cls-2" d="m254.05,47.19c0-4.03,3.02-6.04,7.04-6.04s7.04,2.01,7.04,6.04-3.02,6.04-7.04,6.04-7.04-2.01-7.04-6.04Zm2.01,18.11h10.06v58.37h-10.06v-58.37Z"/>
    <path class="cls-2" d="m286.25,65.3h8.05l1.01,8.05h0c5.03-5.03,11.07-10.06,18.11-10.06,9.06,0,14.09,4.03,16.1,11.07,6.04-7.04,12.08-11.07,19.12-11.07,12.08,0,18.11,8.05,18.11,23.15v37.24h-10.06v-36.23c0-11.07-3.02-15.1-11.07-15.1-5.03,0-9.06,3.02-15.1,9.06v42.27h-10.06v-36.23c0-11.07-3.02-15.1-11.07-15.1-4.03,0-9.06,3.02-15.1,9.06v42.27h-10.06l2.01-58.37h0Z"/>
    <path class="cls-2" d="m385.88,65.3h8.05l1.01,7.04h0c5.03-4.03,12.08-8.05,19.12-8.05,15.1,0,23.15,12.08,23.15,30.19,0,20.13-12.08,31.2-25.16,31.2-5.03,0-11.07-2.01-16.1-7.04v30.19h-10.06v-83.53h0Zm41.26,29.18c0-13.08-4.03-21.13-15.1-21.13-5.03,0-10.06,3.02-16.1,8.05v31.2c5.03,4.03,10.06,6.04,14.09,6.04,10.06-1.01,17.11-10.06,17.11-24.15Z"/>
    <path class="cls-2" d="m453.31,112.6V38.13h10.06v74.47c0,3.02,1.01,4.03,3.02,4.03h2.01l1.01,8.05c-1.01,0-3.02,1.01-6.04,1.01-7.04,0-10.06-5.03-10.06-13.08Z"/>
    <path class="cls-2" d="m479.48,95.49c0-19.12,13.08-31.2,26.17-31.2,15.1,0,23.15,11.07,23.15,27.17v6.04h-39.25c1.01,12.08,8.05,20.13,19.12,20.13,6.04,0,10.06-2.01,15.1-5.03l3.02,6.04c-5.03,3.02-11.07,6.04-19.12,6.04-15.1,1.01-28.18-10.06-28.18-29.18Zm41.26-5.03c0-12.08-5.03-18.11-14.09-18.11-8.05,0-15.1,7.04-17.11,18.11h31.2Z"/>
    <path class="cls-2" d="m544.89,45.17h20.13c24.15,0,37.24,14.09,37.24,39.25s-13.08,40.25-37.24,40.25h-20.13V45.17h0Zm19.12,71.45c18.11,0,28.18-11.07,28.18-31.2s-9.06-31.2-28.18-31.2h-9.06v62.39h9.06Z"/>
    <path class="cls-2" d="m613.32,95.49c0-19.12,13.08-31.2,26.17-31.2,15.1,0,23.15,11.07,23.15,27.17,0,2.01,0,4.03-1.01,6.04h-39.25c1.01,12.08,8.05,20.13,19.12,20.13,6.04,0,10.06-2.01,14.09-5.03l3.02,6.04c-5.03,3.02-11.07,6.04-19.12,6.04-13.08,1.01-26.17-10.06-26.17-29.18Zm41.26-5.03c0-12.08-5.03-18.11-14.09-18.11-8.05,0-16.1,7.04-17.11,18.11h31.2Z"/>
    <path class="cls-2" d="m669.68,65.3h10.06l11.07,33.21c2.01,6.04,4.03,12.08,5.03,17.11h1.01c2.01-6.04,4.03-11.07,5.03-17.11l11.07-33.21h10.06l-21.13,58.37h-12.08l-20.13-58.37Z"/>
  </g>
</svg>