<?xml version="1.0" encoding="UTF-8"?><svg id="Layer_1" xmlns="http://www.w3.org/2000/svg" width="800" height="192.51" viewBox="0 0 800 192.51"><defs><style>.cls-1{stroke:#5479bc;stroke-miterlimit:10;stroke-width:5.57px;}.cls-1,.cls-2{fill:#fff;}.cls-2,.cls-3,.cls-4{stroke-width:0px;}.cls-3{fill:#5479bc;}.cls-4{fill:#231f20;}</style></defs><circle class="cls-3" cx="96.26" cy="96.26" r="96.26"/><path class="cls-1" d="m65.51,151.31v-27.84h54.56c5.57,0,8.91-3.34,8.91-8.91s-2.23-8.91-7.79-8.91h-8.91c4.45-10.02,8.91-20.04,13.36-30.06,15.59,4.45,25.61,13.36,28.95,27.84,4.45,18.93-5.57,38.97-24.5,45.65-3.34,1.11-7.79,2.23-12.25,2.23h-10.02c-13.36,0-27.84,0-42.31,0Z"/><path class="cls-1" d="m112.28,31.05v26.72h-3.34c-11.14,0-23.38,0-34.52,1.11-5.57,0-8.91,3.34-10.02,7.79-1.11,5.57,1.11,10.02,6.68,11.14,3.34,1.11,7.79,2.23,12.25,2.23-3.34,8.91-6.68,16.7-11.14,25.61-8.91-1.11-16.7-4.45-23.38-10.02-11.14-11.14-14.48-23.38-10.02-37.86,4.45-13.36,13.36-23.38,27.84-25.61,2.23,0,4.45-1.11,6.68-1.11h38.97c-1.11,0,0,0,0,0Z"/><path class="cls-2" d="m101.14,71.14c3.34,0,6.68,1.11,10.02,1.11-4.45,12.25-10.02,25.61-14.48,37.86-3.34,0-6.68-1.11-10.02-1.11,4.45-13.36,8.91-25.61,14.48-37.86Z"/><path class="cls-4" d="m206.5,126.82l6.68-7.79c6.68,6.68,15.59,11.14,24.5,11.14,11.14,0,17.82-5.57,17.82-14.48s-6.68-12.25-14.48-15.59l-12.25-5.57c-7.79-3.34-17.82-10.02-17.82-22.27,0-13.36,11.14-23.38,27.84-23.38,10.02,0,20.04,4.45,25.61,11.14l-5.57,6.68c-5.57-5.57-12.25-7.79-20.04-7.79-10.02,0-16.7,5.57-16.7,12.25,0,8.91,7.79,11.14,14.48,14.48l12.25,5.57c10.02,4.45,17.82,10.02,17.82,23.38s-11.14,24.5-30.06,24.5c-11.14,0-22.27-4.45-30.06-12.25Z"/><path class="cls-4" d="m281.1,52.21c0-4.45,3.34-6.68,7.79-6.68s7.79,2.23,7.79,6.68-3.34,6.68-7.79,6.68-7.79-2.23-7.79-6.68Zm2.23,20.04h11.14v64.58h-11.14v-64.58Z"/><path class="cls-4" d="m316.73,72.25h8.91l1.11,8.91h0c5.57-5.57,12.25-11.14,20.04-11.14,10.02,0,15.59,4.45,17.82,12.25,6.68-7.79,13.36-12.25,21.16-12.25,13.36,0,20.04,8.91,20.04,25.61v41.2h-11.14v-40.09c0-12.25-3.34-16.7-12.25-16.7-5.57,0-10.02,3.34-16.7,10.02v46.77h-11.14v-40.09c0-12.25-3.34-16.7-12.25-16.7-4.45,0-10.02,3.34-16.7,10.02v46.77h-11.14l2.23-64.58h0Z"/><path class="cls-4" d="m426.97,72.25h8.91l1.11,7.79h0c5.57-4.45,13.36-8.91,21.16-8.91,16.7,0,25.61,13.36,25.61,33.41,0,22.27-13.36,34.52-27.84,34.52-5.57,0-12.25-2.23-17.82-7.79v33.41h-11.14v-92.42h0Zm45.65,32.29c0-14.48-4.45-23.38-16.7-23.38-5.57,0-11.14,3.34-17.82,8.91v34.52c5.57,4.45,11.14,6.68,15.59,6.68,11.14-1.11,18.93-11.14,18.93-26.72Z"/><path class="cls-4" d="m501.58,124.59V42.19h11.14v82.4c0,3.34,1.11,4.45,3.34,4.45h2.23l1.11,8.91c-1.11,0-3.34,1.11-6.68,1.11-7.79,0-11.14-5.57-11.14-14.48Z"/><path class="cls-4" d="m530.53,105.66c0-21.16,14.48-34.52,28.95-34.52,16.7,0,25.61,12.25,25.61,30.06v6.68h-43.43c1.11,13.36,8.91,22.27,21.16,22.27,6.68,0,11.14-2.23,16.7-5.57l3.34,6.68c-5.57,3.34-12.25,6.68-21.16,6.68-16.7,1.11-31.18-11.14-31.18-32.29Zm45.65-5.57c0-13.36-5.57-20.04-15.59-20.04-8.91,0-16.7,7.79-18.93,20.04h34.52Z"/><path class="cls-4" d="m602.91,49.98h22.27c26.72,0,41.2,15.59,41.2,43.43s-14.48,44.54-41.2,44.54h-22.27V49.98h0Zm21.16,79.06c20.04,0,31.18-12.25,31.18-34.52s-10.02-34.52-31.18-34.52h-10.02v69.04h10.02Z"/><path class="cls-4" d="m678.63,105.66c0-21.16,14.48-34.52,28.95-34.52,16.7,0,25.61,12.25,25.61,30.06,0,2.23,0,4.45-1.11,6.68h-43.43c1.11,13.36,8.91,22.27,21.16,22.27,6.68,0,11.14-2.23,15.59-5.57l3.34,6.68c-5.57,3.34-12.25,6.68-21.16,6.68-14.48,1.11-28.95-11.14-28.95-32.29Zm45.65-5.57c0-13.36-5.57-20.04-15.59-20.04-8.91,0-17.82,7.79-18.93,20.04h34.52Z"/><path class="cls-4" d="m740.98,72.25h11.14l12.25,36.75c2.23,6.68,4.45,13.36,5.57,18.93h1.11c2.23-6.68,4.45-12.25,5.57-18.93l12.25-36.75h11.14l-23.38,64.58h-13.36l-22.27-64.58Z"/></svg>